Figtree-Light.ufo
<glyph name="percent" format="2">
  <advance width="775"/>
  <unicode hex="0025"/>
  <outline>
    <contour>
      <point x="100" y="0" type="line"/>
      <point x="175" y="0" type="line"/>
      <point x="675" y="700" type="line"/>
      <point x="597" y="700" type="line"/>
    </contour>
    <contour>
      <point x="203" y="390" type="curve" smooth="yes"/>
      <point x="293" y="390"/>
      <point x="356" y="458"/>
      <point x="356" y="553" type="curve" smooth="yes"/>
      <point x="356" y="648"/>
      <point x="293" y="716"/>
      <point x="203" y="716" type="curve" smooth="yes"/>
      <point x="113" y="716"/>
      <point x="50" y="648"/>
      <point x="50" y="553" type="curve" smooth="yes"/>
      <point x="50" y="458"/>
      <point x="113" y="390"/>
    </contour>
    <contour>
      <point x="203" y="450" type="curve" smooth="yes"/>
      <point x="145" y="450"/>
      <point x="104" y="493"/>
      <point x="104" y="553" type="curve" smooth="yes"/>
      <point x="104" y="613"/>
      <point x="145" y="656"/>
      <point x="203" y="656" type="curve" smooth="yes"/>
      <point x="261" y="656"/>
      <point x="302" y="613"/>
      <point x="302" y="553" type="curve" smooth="yes"/>
      <point x="302" y="493"/>
      <point x="261" y="450"/>
    </contour>
    <contour>
      <point x="572" y="-16" type="curve" smooth="yes"/>
      <point x="662" y="-16"/>
      <point x="725" y="52"/>
      <point x="725" y="147" type="curve" smooth="yes"/>
      <point x="725" y="242"/>
      <point x="662" y="310"/>
      <point x="572" y="310" type="curve" smooth="yes"/>
      <point x="482" y="310"/>
      <point x="419" y="242"/>
      <point x="419" y="147" type="curve" smooth="yes"/>
      <point x="419" y="52"/>
      <point x="482" y="-16"/>
    </contour>
    <contour>
      <point x="572" y="44" type="curve" smooth="yes"/>
      <point x="514" y="44"/>
      <point x="473" y="87"/>
      <point x="473" y="147" type="curve" smooth="yes"/>
      <point x="473" y="207"/>
      <point x="514" y="250"/>
      <point x="572" y="250" type="curve" smooth="yes"/>
      <point x="630" y="250"/>
      <point x="671" y="207"/>
      <point x="671" y="147" type="curve" smooth="yes"/>
      <point x="671" y="87"/>
      <point x="630" y="44"/>
    </contour>
  </outline>
</glyph>
<glyph name="asterisk" format="2">
  <advance width="478"/>
  <unicode hex="002A"/>
  <outline>
    <contour>
      <point x="317" y="397" type="line"/>
      <point x="366" y="432" type="line"/>
      <point x="263" y="565" type="line"/>
      <point x="223" y="537" type="line"/>
    </contour>
    <contour>
      <point x="165" y="394" type="line"/>
      <point x="259" y="533" type="line"/>
      <point x="220" y="562" type="line"/>
      <point x="116" y="430" type="line"/>
    </contour>
    <contour>
      <point x="231" y="526" type="line"/>
      <point x="247" y="572" type="line"/>
      <point x="89" y="630" type="line"/>
      <point x="70" y="572" type="line"/>
    </contour>
    <contour>
      <point x="215" y="548" type="line"/>
      <point x="263" y="548" type="line"/>
      <point x="269" y="716" type="line"/>
      <point x="209" y="716" type="line"/>
    </contour>
    <contour>
      <point x="246" y="525" type="line"/>
      <point x="408" y="571" type="line"/>
      <point x="390" y="628" type="line"/>
      <point x="232" y="571" type="line"/>
    </contour>
  </outline>
</glyph>
<glyph name="plus" format="2">
  <advance width="610"/>
  <unicode hex="002B"/>
  <outline>
    <contour>
      <point x="277" y="73" type="line"/>
      <point x="334" y="73" type="line"/>
      <point x="334" y="523" type="line"/>
      <point x="277" y="523" type="line"/>
    </contour>
    <contour>
      <point x="80" y="269" type="line"/>
      <point x="530" y="269" type="line"/>
      <point x="530" y="326" type="line"/>
      <point x="80" y="326" type="line"/>
    </contour>
  </outline>
</glyph>
<glyph name="hyphen" format="2">
  <advance width="420"/>
  <unicode hex="002D"/>
  <outline>
    <contour>
      <point x="60" y="269" type="line"/>
      <point x="360" y="269" type="line"/>
      <point x="360" y="326" type="line"/>
      <point x="60" y="326" type="line"/>
    </contour>
  </outline>
</glyph>
<glyph name="period" format="2">
  <advance width="192"/>
  <unicode hex="002E"/>
  <outline>
    <contour>
      <point x="96" y="-14" type="curve" smooth="yes"/>
      <point x="121" y="-14"/>
      <point x="142" y="7"/>
      <point x="142" y="32" type="curve" smooth="yes"/>
      <point x="142" y="57"/>
      <point x="121" y="78"/>
      <point x="96" y="78" type="curve" smooth="yes"/>
      <point x="71" y="78"/>
      <point x="50" y="57"/>
      <point x="50" y="32" type="curve" smooth="yes"/>
      <point x="50" y="7"/>
      <point x="71" y="-14"/>
    </contour>
  </outline>
</glyph>
<glyph name="zero" format="2">
  <advance width="638"/>
  <unicode hex="0030"/>
  <outline>
    <contour>
      <point x="319" y="-12" type="curve" smooth="yes"/>
      <point x="477" y="-12"/>
      <point x="588" y="138"/>
      <point x="588" y="350" type="curve" smooth="yes"/>
      <point x="588" y="562"/>
      <point x="477" y="712"/>
      <point x="319" y="712" type="curve" smooth="yes"/>
      <point x="161" y="712"/>
      <point x="50" y="562"/>
      <point x="50" y="350" type="curve" smooth="yes"/>
      <point x="50" y="138"/>
      <point x="161" y="-12"/>
    </contour>
    <contour>
      <point x="319" y="46" type="curve" smooth="yes"/>
      <point x="199" y="46"/>
      <point x="114" y="172"/>
      <point x="114" y="350" type="curve" smooth="yes"/>
      <point x="114" y="528"/>
      <point x="199" y="654"/>
      <point x="319" y="654" type="curve" smooth="yes"/>
      <point x="439" y="654"/>
      <point x="524" y="528"/>
      <point x="524" y="350" type="curve" smooth="yes"/>
      <point x="524" y="172"/>
      <point x="439" y="46"/>
    </contour>
  </outline>
</glyph>
<glyph name="four" format="2">
  <advance width="616"/>
  <unicode hex="0034"/>
  <outline>
    <contour>
      <point x="99" y="197" type="line"/>
      <point x="417" y="663" type="line"/>
      <point x="372" y="700" type="line"/>
      <point x="50" y="231" type="line"/>
    </contour>
    <contour>
      <point x="50" y="182" type="line"/>
      <point x="586" y="182" type="line"/>
      <point x="586" y="241" type="line"/>
      <point x="95" y="241" type="line"/>
      <point x="50" y="231" type="line"/>
    </contour>
    <contour>
      <point x="372" y="0" type="line"/>
      <point x="435" y="0" type="line"/>
      <point x="435" y="700" type="line"/>
      <point x="372" y="700" type="line"/>
      <point x="372" y="654" type="line"/>
    </contour>
  </outline>
</glyph>
<glyph name="six" format="2">
  <advance width="560"/>
  <unicode hex="0036"/>
  <outline>
    <contour>
      <point x="298" y="-12" type="curve" smooth="yes"/>
      <point x="434" y="-12"/>
      <point x="530" y="80"/>
      <point x="530" y="213" type="curve" smooth="yes"/>
      <point x="530" y="345"/>
      <point x="434" y="437"/>
      <point x="298" y="437" type="curve" smooth="yes"/>
      <point x="199" y="437"/>
      <point x="122" y="384"/>
      <point x="90" y="300" type="curve"/>
      <point x="104" y="283" type="line"/>
      <point x="94" y="531"/>
      <point x="173" y="654"/>
      <point x="321" y="654" type="curve" smooth="yes"/>
      <point x="369" y="654"/>
      <point x="422" y="636"/>
      <point x="465" y="605" type="curve"/>
      <point x="504" y="650" type="line"/>
      <point x="451" y="689"/>
      <point x="379" y="712"/>
      <point x="311" y="712" type="curve" smooth="yes"/>
      <point x="157" y="712"/>
      <point x="48" y="583"/>
      <point x="48" y="334" type="curve" smooth="yes"/>
      <point x="48" y="150"/>
      <point x="102" y="-12"/>
    </contour>
    <contour>
      <point x="298" y="46" type="curve" smooth="yes"/>
      <point x="199" y="46"/>
      <point x="129" y="114"/>
      <point x="129" y="213" type="curve" smooth="yes"/>
      <point x="129" y="311"/>
      <point x="199" y="379"/>
      <point x="298" y="379" type="curve" smooth="yes"/>
      <point x="396" y="379"/>
      <point x="466" y="311"/>
      <point x="466" y="213" type="curve" smooth="yes"/>
      <point x="466" y="114"/>
      <point x="396" y="46"/>
    </contour>
  </outline>
</glyph>
<glyph name="seven" format="2">
  <advance width="530"/>
  <unicode hex="0037"/>
  <outline>
    <contour>
      <point x="77" y="0" type="line"/>
      <point x="148" y="0" type="line"/>
      <point x="500" y="642" type="line"/>
      <point x="446" y="672" type="line"/>
    </contour>
    <contour>
      <point x="45" y="642" type="line"/>
      <point x="463" y="642" type="line"/>
      <point x="500" y="642" type="line"/>
      <point x="500" y="700" type="line"/>
      <point x="45" y="700" type="line"/>
    </contour>
  </outline>
</glyph>
<glyph name="colon" format="2">
  <advance width="234"/>
  <unicode hex="003A"/>
  <outline>
    <contour>
      <point x="116" y="410" type="curve" smooth="yes"/>
      <point x="141" y="410"/>
      <point x="162" y="431"/>
      <point x="162" y="456" type="curve" smooth="yes"/>
      <point x="162" y="481"/>
      <point x="141" y="502"/>
      <point x="116" y="502" type="curve" smooth="yes"/>
      <point x="91" y="502"/>
      <point x="70" y="481"/>
      <point x="70" y="456" type="curve" smooth="yes"/>
      <point x="70" y="431"/>
      <point x="91" y="410"/>
    </contour>
    <contour>
      <point x="118" y="-2" type="curve" smooth="yes"/>
      <point x="143" y="-2"/>
      <point x="164" y="19"/>
      <point x="164" y="44" type="curve" smooth="yes"/>
      <point x="164" y="69"/>
      <point x="143" y="90"/>
      <point x="118" y="90" type="curve" smooth="yes"/>
      <point x="93" y="90"/>
      <point x="72" y="69"/>
      <point x="72" y="44" type="curve" smooth="yes"/>
      <point x="72" y="19"/>
      <point x="93" y="-2"/>
    </contour>
  </outline>
</glyph>
<glyph name="B" format="2">
  <advance width="610"/>
  <unicode hex="0042"/>
  <outline>
    <contour>
      <point x="164" y="0" type="line"/>
      <point x="342" y="0" type="line" smooth="yes"/>
      <point x="479" y="0"/>
      <point x="560" y="69"/>
      <point x="560" y="187" type="curve" smooth="yes"/>
      <point x="560" y="311"/>
      <point x="458" y="385"/>
      <point x="285" y="385" type="curve" smooth="yes"/>
      <point x="164" y="384" type="line"/>
      <point x="164" y="326" type="line"/>
      <point x="315" y="326" type="line" smooth="yes"/>
      <point x="429" y="327"/>
      <point x="497" y="275"/>
      <point x="497" y="187" type="curve" smooth="yes"/>
      <point x="497" y="107"/>
      <point x="439" y="59"/>
      <point x="342" y="59" type="curve" smooth="yes"/>
      <point x="164" y="59" type="line"/>
    </contour>
    <contour>
      <point x="100" y="0" type="line"/>
      <point x="164" y="0" type="line"/>
      <point x="164" y="700" type="line"/>
      <point x="100" y="700" type="line"/>
    </contour>
    <contour>
      <point x="164" y="326" type="line"/>
      <point x="312" y="326" type="line" smooth="yes"/>
      <point x="455" y="326"/>
      <point x="540" y="395"/>
      <point x="540" y="513" type="curve" smooth="yes"/>
      <point x="540" y="631"/>
      <point x="456" y="701"/>
      <point x="315" y="701" type="curve" smooth="yes"/>
      <point x="164" y="700" type="line"/>
      <point x="164" y="642" type="line"/>
      <point x="315" y="642" type="line" smooth="yes"/>
      <point x="417" y="643"/>
      <point x="477" y="595"/>
      <point x="477" y="513" type="curve" smooth="yes"/>
      <point x="477" y="433"/>
      <point x="427" y="385"/>
      <point x="342" y="385" type="curve" smooth="yes"/>
      <point x="164" y="385" type="line"/>
    </contour>
  </outline>
</glyph>
<glyph name="I" format="2">
  <advance width="264"/>
  <unicode hex="0049"/>
  <anchor x="132" y="0" name="bottom"/>
  <anchor x="164" y="0" name="ogonek"/>
  <anchor x="132" y="670" name="top"/>
  <anchor x="20" y="700" name="topleft"/>
  <outline>
    <contour>
      <point x="100" y="0" type="line"/>
      <point x="164" y="0" type="line"/>
      <point x="164" y="700" type="line"/>
      <point x="100" y="700" type="line"/>
    </contour>
  </outline>
</glyph>
<glyph name="J" format="2">
  <advance width="500"/>
  <unicode hex="004A"/>
  <anchor x="378" y="670" name="top"/>
  <outline>
    <contour>
      <point x="184" y="-11" type="curve" smooth="yes"/>
      <point x="291" y="-11"/>
      <point x="410" y="61"/>
      <point x="410" y="212" type="curve" smooth="yes"/>
      <point x="410" y="700" type="line"/>
      <point x="346" y="700" type="line"/>
      <point x="346" y="242" type="line" smooth="yes"/>
      <point x="346" y="97"/>
      <point x="260" y="47"/>
      <point x="184" y="47" type="curve" smooth="yes"/>
      <point x="123" y="47"/>
      <point x="80" y="83"/>
      <point x="51" y="130" type="curve"/>
      <point x="6" y="95" type="line"/>
      <point x="42" y="33"/>
      <point x="101" y="-11"/>
    </contour>
  </outline>
</glyph>
<glyph name="N" format="2">
  <advance width="774"/>
  <unicode hex="004E"/>
  <anchor x="387" y="0" name="bottom"/>
  <anchor x="381" y="670" name="top"/>
  <outline>
    <contour>
      <point x="610" y="0" type="line"/>
      <point x="659" y="37" type="line"/>
      <point x="164" y="700" type="line"/>
      <point x="115" y="664" type="line"/>
    </contour>
    <contour>
      <point x="100" y="0" type="line"/>
      <point x="164" y="0" type="line"/>
      <point x="164" y="654" type="line"/>
      <point x="164" y="700" type="line"/>
      <point x="100" y="700" type="line"/>
    </contour>
    <contour>
      <point x="610" y="0" type="line"/>
      <point x="674" y="0" type="line"/>
      <point x="674" y="700" type="line"/>
      <point x="610" y="700" type="line"/>
    </contour>
  </outline>
</glyph>
<glyph name="O" format="2">
  <advance width="772"/>
  <unicode hex="004F"/>
  <anchor x="389" y="0" name="bottom"/>
  <anchor x="386" y="350" name="center"/>
  <anchor x="695" y="10" name="ogonek"/>
  <anchor x="386" y="670" name="top"/>
  <anchor x="20" y="700" name="topleft"/>
  <anchor x="752" y="700" name="topright"/>
  <outline>
    <contour>
      <point x="389" y="-12" type="curve" smooth="yes"/>
      <point x="584" y="-12"/>
      <point x="722" y="137"/>
      <point x="722" y="350" type="curve" smooth="yes"/>
      <point x="722" y="562"/>
      <point x="584" y="712"/>
      <point x="386" y="712" type="curve" smooth="yes"/>
      <point x="188" y="712"/>
      <point x="50" y="563"/>
      <point x="50" y="350" type="curve" smooth="yes"/>
      <point x="50" y="137"/>
      <point x="191" y="-12"/>
    </contour>
    <contour>
      <point x="389" y="46" type="curve" smooth="yes"/>
      <point x="228" y="46"/>
      <point x="114" y="172"/>
      <point x="114" y="350" type="curve" smooth="yes"/>
      <point x="114" y="528"/>
      <point x="227" y="654"/>
      <point x="386" y="654" type="curve" smooth="yes"/>
      <point x="545" y="654"/>
      <point x="658" y="528"/>
      <point x="658" y="350" type="curve" smooth="yes"/>
      <point x="658" y="172"/>
      <point x="547" y="46"/>
    </contour>
  </outline>
</glyph>
<glyph name="W" format="2">
  <advance width="950"/>
  <unicode hex="0057"/>
  <anchor x="475" y="670" name="top"/>
  <outline>
    <contour>
      <point x="654" y="0" type="line"/>
      <point x="719" y="0" type="line"/>
      <point x="940" y="700" type="line"/>
      <point x="876" y="700" type="line"/>
    </contour>
    <contour>
      <point x="226" y="0" type="line"/>
      <point x="291" y="0" type="line"/>
      <point x="74" y="700" type="line"/>
      <point x="10" y="700" type="line"/>
    </contour>
    <contour>
      <point x="231" y="0" type="line"/>
      <point x="296" y="0" type="line"/>
      <point x="507" y="700" type="line"/>
      <point x="443" y="700" type="line"/>
    </contour>
    <contour>
      <point x="649" y="0" type="line"/>
      <point x="714" y="0" type="line"/>
      <point x="507" y="700" type="line"/>
      <point x="443" y="700" type="line"/>
    </contour>
  </outline>
</glyph>
<glyph name="underscore" format="2">
  <advance width="440"/>
  <unicode hex="005F"/>
  <outline>
    <contour>
      <point x="20" y="-57" type="line"/>
      <point x="420" y="-57" type="line"/>
      <point x="420" y="0" type="line"/>
      <point x="20" y="0" type="line"/>
    </contour>
  </outline>
</glyph>
<glyph name="a" format="2">
  <advance width="501"/>
  <unicode hex="0061"/>
  <anchor x="246" y="0" name="bottom"/>
  <anchor x="441" y="0" name="ogonek"/>
  <anchor x="252" y="500" name="top"/>
  <outline>
    <contour>
      <point x="391" y="0" type="line"/>
      <point x="441" y="0" type="line"/>
      <point x="441" y="268" type="line" smooth="yes"/>
      <point x="441" y="432"/>
      <point x="376" y="512"/>
      <point x="242" y="512" type="curve" smooth="yes"/>
      <point x="158" y="512"/>
      <point x="94" y="477"/>
      <point x="50" y="405" type="curve"/>
      <point x="104" y="381" type="line"/>
      <point x="132" y="432"/>
      <point x="178" y="457"/>
      <point x="242" y="457" type="curve" smooth="yes"/>
      <point x="340" y="457"/>
      <point x="376" y="395"/>
      <point x="381" y="268" type="curve" smooth="yes"/>
    </contour>
    <contour>
      <point x="232" y="-12" type="curve" smooth="yes"/>
      <point x="361" y="-12"/>
      <point x="437" y="78"/>
      <point x="437" y="214" type="curve"/>
      <point x="383" y="214" type="line"/>
      <point x="383" y="112"/>
      <point x="325" y="43"/>
      <point x="228" y="43" type="curve" smooth="yes"/>
      <point x="150" y="43"/>
      <point x="105" y="80"/>
      <point x="105" y="141" type="curve"/>
      <point x="105" y="205"/>
      <point x="144" y="242"/>
      <point x="240" y="242" type="curve" smooth="yes"/>
      <point x="420" y="242" type="line"/>
      <point x="420" y="297" type="line"/>
      <point x="232" y="297" type="line" smooth="yes"/>
      <point x="114" y="297"/>
      <point x="45" y="239"/>
      <point x="45" y="141" type="curve"/>
      <point x="45" y="45"/>
      <point x="114" y="-12"/>
    </contour>
  </outline>
</glyph>
<glyph name="b" format="2">
  <advance width="582"/>
  <unicode hex="0062"/>
  <outline>
    <contour>
      <point x="75" y="0" type="line"/>
      <point x="132" y="0" type="line"/>
      <point x="135" y="93" type="line"/>
      <point x="135" y="700" type="line"/>
      <point x="75" y="700" type="line"/>
    </contour>
    <component base="Bowl" xScale="-1.0" xOffset="582.0"/>
  </outline>
</glyph>
<glyph name="d" format="2">
  <advance width="582"/>
  <unicode hex="0064"/>
  <anchor x="477" y="700" name="top"/>
  <anchor x="508" y="700" name="top_caron"/>
  <outline>
    <contour>
      <point x="450" y="0" type="line"/>
      <point x="507" y="0" type="line"/>
      <point x="507" y="700" type="line"/>
      <point x="447" y="700" type="line"/>
      <point x="447" y="93" type="line"/>
    </contour>
    <component base="Bowl"/>
  </outline>
</glyph>
<glyph name="f" format="2">
  <advance width="360"/>
  <unicode hex="0066"/>
  <outline>
    <contour>
      <point x="125" y="0" type="line"/>
      <point x="185" y="0" type="line"/>
      <point x="185" y="560" type="line" smooth="yes"/>
      <point x="185" y="625"/>
      <point x="210" y="657"/>
      <point x="261" y="657" type="curve" smooth="yes"/>
      <point x="275" y="657"/>
      <point x="298" y="650"/>
      <point x="333" y="637" type="curve"/>
      <point x="355" y="688" type="line"/>
      <point x="316" y="704"/>
      <point x="287" y="712"/>
      <point x="266" y="712" type="curve" smooth="yes"/>
      <point x="171" y="712"/>
      <point x="125" y="662"/>
      <point x="125" y="560" type="curve" smooth="yes"/>
    </contour>
    <contour>
      <point x="30" y="445" type="line"/>
      <point x="338" y="445" type="line"/>
      <point x="338" y="500" type="line"/>
      <point x="30" y="500" type="line"/>
    </contour>
  </outline>
</glyph>
<glyph name="j" format="2">
  <advance width="260"/>
  <unicode hex="006A"/>
  <anchor x="150" y="500" name="top"/>
  <outline>
    <contour>
      <point x="150" y="632" type="curve" smooth="yes"/>
      <point x="172" y="632"/>
      <point x="190" y="650"/>
      <point x="190" y="672" type="curve" smooth="yes"/>
      <point x="190" y="694"/>
      <point x="172" y="712"/>
      <point x="150" y="712" type="curve" smooth="yes"/>
      <point x="128" y="712"/>
      <point x="110" y="694"/>
      <point x="110" y="672" type="curve" smooth="yes"/>
      <point x="110" y="650"/>
      <point x="128" y="632"/>
    </contour>
    <component base="jdotless"/>
  </outline>
</glyph>
<glyph name="p" format="2">
  <advance width="587"/>
  <unicode hex="0070"/>
  <outline>
    <contour>
      <point x="80" y="-200" type="line"/>
      <point x="140" y="-200" type="line"/>
      <point x="140" y="408" type="line"/>
      <point x="136" y="500" type="line"/>
      <point x="80" y="500" type="line"/>
    </contour>
    <component base="Bowl" xScale="-1.0" xOffset="587.0"/>
  </outline>
</glyph>
<glyph name="t" format="2">
  <advance width="377"/>
  <unicode hex="0074"/>
  <anchor x="219" y="0" name="bottom"/>
  <anchor x="189" y="250" name="center"/>
  <anchor x="189" y="500" name="top"/>
  <anchor x="208" y="726" name="top_caron"/>
  <anchor x="357" y="800" name="topright"/>
  <outline>
    <contour>
      <point x="266" y="-12" type="curve" smooth="yes"/>
      <point x="291" y="-12"/>
      <point x="312" y="-8"/>
      <point x="348" y="13" type="curve"/>
      <point x="323" y="65" type="line"/>
      <point x="293" y="45"/>
      <point x="282" y="43"/>
      <point x="266" y="43" type="curve" smooth="yes"/>
      <point x="211" y="43"/>
      <point x="179" y="74"/>
      <point x="179" y="128" type="curve" smooth="yes"/>
      <point x="179" y="656" type="line"/>
      <point x="119" y="656" type="line"/>
      <point x="119" y="128" type="line" smooth="yes"/>
      <point x="119" y="39"/>
      <point x="174" y="-12"/>
    </contour>
    <contour>
      <point x="30" y="445" type="line"/>
      <point x="338" y="445" type="line"/>
      <point x="338" y="500" type="line"/>
      <point x="30" y="500" type="line"/>
    </contour>
  </outline>
</glyph>
<glyph name="x" format="2">
  <advance width="442"/>
  <unicode hex="0078"/>
  <outline>
    <contour>
      <point x="5" y="0" type="line"/>
      <point x="79" y="0" type="line"/>
      <point x="238" y="233" type="line"/>
      <point x="425" y="500" type="line"/>
      <point x="353" y="500" type="line"/>
      <point x="209" y="288" type="line"/>
    </contour>
    <contour>
      <point x="364" y="0" type="line"/>
      <point x="437" y="0" type="line"/>
      <point x="235" y="288" type="line"/>
      <point x="90" y="500" type="line"/>
      <point x="18" y="500" type="line"/>
      <point x="207" y="233" type="line"/>
    </contour>
  </outline>
</glyph>
<glyph name="y" format="2">
  <advance width="507"/>
  <unicode hex="0079"/>
  <anchor x="253" y="500" name="top"/>
  <outline>
    <contour>
      <point x="99" y="-212" type="curve" smooth="yes"/>
      <point x="181" y="-212"/>
      <point x="216" y="-165"/>
      <point x="252" y="-80" type="curve" smooth="yes"/>
      <point x="497" y="500" type="line"/>
      <point x="434" y="500" type="line"/>
      <point x="239" y="39" type="line"/>
      <point x="182" y="-97" type="line" smooth="yes"/>
      <point x="166" y="-135"/>
      <point x="142" y="-157"/>
      <point x="104" y="-157" type="curve" smooth="yes"/>
      <point x="90" y="-157"/>
      <point x="67" y="-150"/>
      <point x="32" y="-137" type="curve"/>
      <point x="10" y="-188" type="line"/>
      <point x="49" y="-204"/>
      <point x="78" y="-212"/>
    </contour>
    <contour>
      <point x="222" y="0" type="line"/>
      <point x="283" y="0" type="line"/>
      <point x="266" y="40" type="line"/>
      <point x="73" y="500" type="line"/>
      <point x="11" y="500" type="line"/>
    </contour>
  </outline>
</glyph>
<glyph name="sterling" format="2">
  <advance width="569"/>
  <unicode hex="00A3"/>
  <outline>
    <contour>
      <point x="129" y="120" type="line"/>
      <point x="193" y="135" type="line"/>
      <point x="193" y="519" type="line" smooth="yes"/>
      <point x="193" y="598"/>
      <point x="248" y="654"/>
      <point x="325" y="654" type="curve" smooth="yes"/>
      <point x="402" y="654"/>
      <point x="456" y="599"/>
      <point x="456" y="521" type="curve"/>
      <point x="519" y="511" type="line"/>
      <point x="519" y="638"/>
      <point x="438" y="712"/>
      <point x="325" y="712" type="curve" smooth="yes"/>
      <point x="210" y="712"/>
      <point x="129" y="632"/>
      <point x="129" y="519" type="curve" smooth="yes"/>
    </contour>
    <contour>
      <point x="84" y="0" type="line"/>
      <point x="144" y="0"/>
      <point x="193" y="50"/>
      <point x="193" y="135" type="curve"/>
      <point x="129" y="120" type="line"/>
      <point x="129" y="85"/>
      <point x="106" y="58"/>
      <point x="78" y="58" type="curve"/>
    </contour>
    <contour>
      <point x="50" y="0" type="line"/>
      <point x="519" y="0" type="line"/>
      <point x="519" y="58" type="line"/>
      <point x="50" y="58" type="line"/>
    </contour>
    <contour>
      <point x="50" y="291" type="line"/>
      <point x="392" y="291" type="line"/>
      <point x="392" y="350" type="line"/>
      <point x="50" y="350" type="line"/>
    </contour>
  </outline>
</glyph>
<glyph name="copyright" format="2">
  <advance width="823"/>
  <unicode hex="00A9"/>
  <outline>
    <contour>
      <point x="412" y="-11" type="curve" smooth="yes"/>
      <point x="612" y="-11"/>
      <point x="773" y="150"/>
      <point x="773" y="350" type="curve" smooth="yes"/>
      <point x="773" y="550"/>
      <point x="612" y="712"/>
      <point x="412" y="712" type="curve" smooth="yes"/>
      <point x="212" y="712"/>
      <point x="50" y="550"/>
      <point x="50" y="350" type="curve" smooth="yes"/>
      <point x="50" y="150"/>
      <point x="212" y="-11"/>
    </contour>
    <contour>
      <point x="410" y="152" type="curve" smooth="yes"/>
      <point x="474" y="152"/>
      <point x="540" y="193"/>
      <point x="569" y="251" type="curve" smooth="yes"/>
      <point x="582" y="278" type="line"/>
      <point x="525" y="299" type="line"/>
      <point x="515" y="277" type="line" smooth="yes"/>
      <point x="495" y="238"/>
      <point x="452" y="210"/>
      <point x="410" y="210" type="curve" smooth="yes"/>
      <point x="336" y="210"/>
      <point x="284" y="268"/>
      <point x="284" y="350" type="curve" smooth="yes"/>
      <point x="284" y="432"/>
      <point x="336" y="490"/>
      <point x="409" y="490" type="curve" smooth="yes"/>
      <point x="452" y="490"/>
      <point x="495" y="465"/>
      <point x="512" y="429" type="curve" smooth="yes"/>
      <point x="525" y="407" type="line"/>
      <point x="579" y="428" type="line"/>
      <point x="566" y="455" type="line" smooth="yes"/>
      <point x="539" y="509"/>
      <point x="474" y="548"/>
      <point x="409" y="548" type="curve" smooth="yes"/>
      <point x="301" y="548"/>
      <point x="224" y="466"/>
      <point x="224" y="350" type="curve" smooth="yes"/>
      <point x="224" y="234"/>
      <point x="301" y="152"/>
    </contour>
    <contour>
      <point x="412" y="45" type="curve" smooth="yes"/>
      <point x="239" y="45"/>
      <point x="112" y="172"/>
      <point x="112" y="350" type="curve" smooth="yes"/>
      <point x="112" y="529"/>
      <point x="239" y="656"/>
      <point x="412" y="656" type="curve" smooth="yes"/>
      <point x="584" y="656"/>
      <point x="711" y="529"/>
      <point x="711" y="350" type="curve" smooth="yes"/>
      <point x="711" y="171"/>
      <point x="585" y="45"/>
    </contour>
  </outline>
</glyph>
<glyph name="ordfeminine" format="2">
  <advance width="329"/>
  <unicode hex="00AA"/>
  <anchor x="158" y="400" name="bottom"/>
  <anchor x="286" y="406" name="ogonek"/>
  <anchor x="160" y="700" name="top"/>
  <outline>
    <contour>
      <point x="233" y="400" type="line"/>
      <point x="287" y="400" type="line"/>
      <point x="287" y="563" type="line" smooth="yes"/>
      <point x="287" y="656"/>
      <point x="242" y="707"/>
      <point x="156" y="707" type="curve" smooth="yes"/>
      <point x="101" y="707"/>
      <point x="60" y="683"/>
      <point x="33" y="638" type="curve"/>
      <point x="87" y="618" type="line"/>
      <point x="101" y="642"/>
      <point x="121" y="656"/>
      <point x="155" y="656" type="curve" smooth="yes"/>
      <point x="210" y="656"/>
      <point x="226" y="621"/>
      <point x="228" y="556" type="curve" smooth="yes"/>
    </contour>
    <contour>
      <point x="143" y="393" type="curve" smooth="yes"/>
      <point x="216" y="393"/>
      <point x="260" y="445"/>
      <point x="260" y="528" type="curve"/>
      <point x="228" y="525" type="line"/>
      <point x="228" y="474"/>
      <point x="198" y="440"/>
      <point x="150" y="440" type="curve" smooth="yes"/>
      <point x="113" y="440"/>
      <point x="91" y="457"/>
      <point x="91" y="485" type="curve"/>
      <point x="91" y="517"/>
      <point x="112" y="535"/>
      <point x="160" y="535" type="curve" smooth="yes"/>
      <point x="247" y="535" type="line"/>
      <point x="247" y="578" type="line"/>
      <point x="143" y="578" type="line" smooth="yes"/>
      <point x="72" y="578"/>
      <point x="31" y="544"/>
      <point x="31" y="485" type="curve"/>
      <point x="31" y="427"/>
      <point x="72" y="393"/>
    </contour>
  </outline>
</glyph>
<glyph name="logicalnot" format="2">
  <advance width="520"/>
  <unicode hex="00AC"/>
  <outline>
    <contour>
      <point x="70" y="299" type="line"/>
      <point x="430" y="299" type="line"/>
      <point x="430" y="356" type="line"/>
      <point x="70" y="356" type="line"/>
    </contour>
    <contour>
      <point x="373" y="201" type="line"/>
      <point x="430" y="201" type="line"/>
      <point x="430" y="356" type="line"/>
      <point x="373" y="356" type="line"/>
    </contour>
  </outline>
</glyph>
<glyph name="degree" format="2">
  <advance width="365"/>
  <unicode hex="00B0"/>
  <outline>
    <contour>
      <point x="182" y="450" type="curve" smooth="yes"/>
      <point x="254" y="450"/>
      <point x="315" y="512"/>
      <point x="315" y="585" type="curve" smooth="yes"/>
      <point x="315" y="656"/>
      <point x="254" y="715"/>
      <point x="182" y="715" type="curve" smooth="yes"/>
      <point x="110" y="715"/>
      <point x="50" y="656"/>
      <point x="50" y="585" type="curve" smooth="yes"/>
      <point x="50" y="512"/>
      <point x="110" y="450"/>
    </contour>
    <contour>
      <point x="182" y="505" type="curve" smooth="yes"/>
      <point x="143" y="505"/>
      <point x="110" y="542"/>
      <point x="110" y="585" type="curve" smooth="yes"/>
      <point x="110" y="626"/>
      <point x="143" y="660"/>
      <point x="182" y="660" type="curve" smooth="yes"/>
      <point x="222" y="660"/>
      <point x="255" y="626"/>
      <point x="255" y="585" type="curve" smooth="yes"/>
      <point x="255" y="542"/>
      <point x="222" y="505"/>
    </contour>
  </outline>
</glyph>
<glyph name="plusminus" format="2">
  <advance width="610"/>
  <unicode hex="00B1"/>
  <outline>
    <contour>
      <point x="277" y="139" type="line"/>
      <point x="334" y="139" type="line"/>
      <point x="334" y="547" type="line"/>
      <point x="277" y="547" type="line"/>
    </contour>
    <contour>
      <point x="80" y="314" type="line"/>
      <point x="530" y="314" type="line"/>
      <point x="530" y="371" type="line"/>
      <point x="80" y="371" type="line"/>
    </contour>
    <contour>
      <point x="80" y="0" type="line"/>
      <point x="530" y="0" type="line"/>
      <point x="530" y="51" type="line"/>
      <point x="80" y="51" type="line"/>
    </contour>
  </outline>
</glyph>
<glyph name="Oslash" format="2">
  <advance width="791"/>
  <unicode hex="00D8"/>
  <anchor x="399" y="0" name="bottom"/>
  <anchor x="396" y="350" name="center"/>
  <anchor x="705" y="10" name="ogonek"/>
  <anchor x="396" y="670" name="top"/>
  <anchor x="30" y="700" name="topleft"/>
  <anchor x="762" y="700" name="topright"/>
  <outline>
    <contour>
      <point x="50" y="0" type="line"/>
      <point x="128" y="0" type="line"/>
      <point x="741" y="700" type="line"/>
      <point x="662" y="700" type="line"/>
    </contour>
    <component base="O" xOffset="10"/>
  </outline>
</glyph>
<glyph name="ae" format="2">
  <advance width="890"/>
  <unicode hex="00E6"/>
  <anchor x="638" y="0" name="bottom"/>
  <anchor x="802" y="50" name="ogonek"/>
  <anchor x="633" y="500" name="top"/>
  <outline>
    <contour>
      <point x="396" y="118" type="line"/>
      <point x="446" y="118" type="line"/>
      <point x="451" y="268" type="line" smooth="yes"/>
      <point x="451" y="432"/>
      <point x="384" y="512"/>
      <point x="246" y="512" type="curve" smooth="yes"/>
      <point x="176" y="512"/>
      <point x="117" y="485"/>
      <point x="68" y="430" type="curve"/>
      <point x="103" y="391" type="line"/>
      <point x="147" y="435"/>
      <point x="194" y="457"/>
      <point x="246" y="457" type="curve" smooth="yes"/>
      <point x="338" y="457"/>
      <point x="380" y="395"/>
      <point x="391" y="268" type="curve" smooth="yes"/>
    </contour>
    <contour>
      <point x="242" y="-12" type="curve" smooth="yes"/>
      <point x="371" y="-12"/>
      <point x="447" y="78"/>
      <point x="447" y="214" type="curve"/>
      <point x="393" y="214" type="line"/>
      <point x="393" y="112"/>
      <point x="335" y="43"/>
      <point x="238" y="43" type="curve" smooth="yes"/>
      <point x="154" y="43"/>
      <point x="105" y="80"/>
      <point x="105" y="141" type="curve"/>
      <point x="105" y="205"/>
      <point x="147" y="243"/>
      <point x="250" y="243" type="curve" smooth="yes"/>
      <point x="430" y="243" type="line"/>
      <point x="430" y="298" type="line"/>
      <point x="242" y="298" type="line" smooth="yes"/>
      <point x="118" y="298"/>
      <point x="45" y="239"/>
      <point x="45" y="141" type="curve"/>
      <point x="45" y="45"/>
      <point x="118" y="-12"/>
    </contour>
    <component base="e" xOffset="347"/>
  </outline>
</glyph>
<glyph name="oslash" format="2">
  <advance width="579"/>
  <unicode hex="00F8"/>
  <anchor x="289" y="0" name="bottom"/>
  <anchor x="289" y="250" name="center"/>
  <anchor x="520" y="10" name="ogonek"/>
  <anchor x="289" y="500" name="top"/>
  <anchor x="558" y="500" name="topright"/>
  <outline>
    <contour>
      <point x="32" y="0" type="line"/>
      <point x="107" y="0" type="line"/>
      <point x="547" y="500" type="line"/>
      <point x="471" y="500" type="line"/>
    </contour>
    <component base="o" xOffset="-1"/>
  </outline>
</glyph>
<glyph name="Hbar" format="2">
  <advance width="752"/>
  <unicode hex="0126"/>
  <outline>
    <contour>
      <point x="5" y="500" type="line"/>
      <point x="747" y="500" type="line"/>
      <point x="747" y="558" type="line"/>
      <point x="5" y="558" type="line"/>
    </contour>
    <component base="H"/>
  </outline>
</glyph>
<glyph name="hbar" format="2">
  <advance width="554"/>
  <unicode hex="0127"/>
  <outline>
    <contour>
      <point x="0" y="571" type="line"/>
      <point x="308" y="571" type="line"/>
      <point x="308" y="626" type="line"/>
      <point x="0" y="626" type="line"/>
    </contour>
    <component base="h"/>
  </outline>
</glyph>
<glyph name="tildecomb" format="2">
  <unicode hex="0303"/>
  <anchor x="247" y="500" name="_top"/>
  <anchor x="247" y="723" name="top"/>
  <outline>
    <contour>
      <point x="329" y="572" type="curve" smooth="yes"/>
      <point x="383" y="572"/>
      <point x="416" y="620"/>
      <point x="422" y="666" type="curve"/>
      <point x="367" y="666" type="line"/>
      <point x="363" y="640"/>
      <point x="353" y="628"/>
      <point x="329" y="628" type="curve" smooth="yes"/>
      <point x="291" y="628"/>
      <point x="278" y="700"/>
      <point x="212" y="700" type="curve" smooth="yes"/>
      <point x="157" y="700"/>
      <point x="121" y="651"/>
      <point x="117" y="607" type="curve"/>
      <point x="172" y="607" type="line"/>
      <point x="178" y="633"/>
      <point x="188" y="644"/>
      <point x="212" y="644" type="curve" smooth="yes"/>
      <point x="244" y="644"/>
      <point x="257" y="572"/>
    </contour>
  </outline>
</glyph>
<glyph name="macroncomb" format="2">
  <unicode hex="0304"/>
  <anchor x="150" y="500" name="_top"/>
  <outline>
    <contour>
      <point x="0" y="580" type="line"/>
      <point x="300" y="580" type="line"/>
      <point x="300" y="637" type="line"/>
      <point x="0" y="637" type="line"/>
    </contour>
  </outline>
</glyph>
<glyph name="dotaccentcomb" format="2">
  <unicode hex="0307"/>
  <anchor x="40" y="500" name="_top"/>
  <outline>
    <contour>
      <point x="40" y="630" type="curve" smooth="yes"/>
      <point x="62" y="630"/>
      <point x="80" y="648"/>
      <point x="80" y="670" type="curve" smooth="yes"/>
      <point x="80" y="692"/>
      <point x="62" y="710"/>
      <point x="40" y="710" type="curve" smooth="yes"/>
      <point x="18" y="710"/>
      <point x="0" y="692"/>
      <point x="0" y="670" type="curve" smooth="yes"/>
      <point x="0" y="648"/>
      <point x="18" y="630"/>
    </contour>
  </outline>
</glyph>
<glyph name="commaaccentcomb" format="2">
  <unicode hex="0326"/>
  <anchor x="86" y="0" name="_bottom"/>
  <outline>
    <contour>
      <point x="9" y="-200" type="line"/>
      <point x="65" y="-200" type="line"/>
      <point x="126" y="-64" type="line"/>
      <point x="55" y="-64" type="line"/>
    </contour>
  </outline>
</glyph>
<glyph name="ogonekcomb" format="2">
  <unicode hex="0328"/>
  <anchor x="196" y="0" name="_ogonek"/>
  <outline>
    <contour>
      <point x="146" y="-212" type="curve" smooth="yes"/>
      <point x="172" y="-212"/>
      <point x="196" y="-204"/>
      <point x="213" y="-192" type="curve"/>
      <point x="194" y="-146" type="line"/>
      <point x="187" y="-149"/>
      <point x="165" y="-157"/>
      <point x="140" y="-157" type="curve" smooth="yes"/>
      <point x="115" y="-157"/>
      <point x="100" y="-145"/>
      <point x="100" y="-124" type="curve" smooth="yes"/>
      <point x="100" y="-75"/>
      <point x="149" y="-35"/>
      <point x="196" y="0" type="curve"/>
      <point x="146" y="12" type="line"/>
      <point x="91" y="-28"/>
      <point x="40" y="-74"/>
      <point x="40" y="-124" type="curve" smooth="yes"/>
      <point x="40" y="-182"/>
      <point x="79" y="-212"/>
    </contour>
  </outline>
</glyph>
<glyph name="emdash" format="2">
  <advance width="1100"/>
  <unicode hex="2014"/>
  <outline>
    <contour>
      <point x="0" y="269" type="line"/>
      <point x="1100" y="269" type="line"/>
      <point x="1100" y="326" type="line"/>
      <point x="0" y="326" type="line"/>
    </contour>
  </outline>
</glyph>
<glyph name="bullet" format="2">
  <advance width="500"/>
  <unicode hex="2022"/>
  <outline>
    <contour>
      <point x="249" y="183" type="curve" smooth="yes"/>
      <point x="302" y="183"/>
      <point x="348" y="229"/>
      <point x="348" y="282" type="curve" smooth="yes"/>
      <point x="348" y="336"/>
      <point x="302" y="380"/>
      <point x="249" y="380" type="curve" smooth="yes"/>
      <point x="195" y="380"/>
      <point x="151" y="336"/>
      <point x="151" y="282" type="curve" smooth="yes"/>
      <point x="151" y="229"/>
      <point x="195" y="183"/>
    </contour>
  </outline>
</glyph>
<glyph name="rightArrow" format="2">
  <advance width="740"/>
  <unicode hex="2192"/>
  <outline>
    <contour>
      <point x="620" y="269" type="line"/>
      <point x="680" y="297" type="line"/>
      <point x="372" y="551" type="line"/>
      <point x="338" y="507" type="line"/>
    </contour>
    <contour>
      <point x="70" y="269" type="line"/>
      <point x="620" y="269" type="line"/>
      <point x="620" y="326" type="line"/>
      <point x="70" y="326" type="line"/>
    </contour>
    <contour>
      <point x="372" y="44" type="line"/>
      <point x="680" y="297" type="line"/>
      <point x="620" y="326" type="line"/>
      <point x="338" y="88" type="line"/>
    </contour>
  </outline>
</glyph>
<glyph name="divisionslash" format="2">
  <advance width="569"/>
  <unicode hex="2215"/>
  <outline>
    <contour>
      <point x="491" y="700" type="line"/>
      <point x="10" y="0" type="line"/>
      <point x="78" y="0" type="line"/>
      <point x="559" y="700" type="line"/>
    </contour>
  </outline>
</glyph>
<glyph name="lessequal" format="2">
  <advance width="541"/>
  <unicode hex="2264"/>
  <outline>
    <contour>
      <point x="100" y="0" type="line"/>
      <point x="431" y="0" type="line"/>
      <point x="431" y="51" type="line"/>
      <point x="100" y="51" type="line"/>
    </contour>
    <component base="less"/>
  </outline>
</glyph>
<glyph name="arch" format="2">
  <advance width="396"/>
  <outline>
    <contour>
      <point x="336" y="256" type="curve"/>
      <point x="396" y="286" type="line"/>
      <point x="397" y="438"/>
      <point x="318" y="512"/>
      <point x="198" y="512" type="curve" smooth="yes"/>
      <point x="69" y="512"/>
      <point x="0" y="417"/>
      <point x="0" y="257" type="curve"/>
      <point x="37" y="257" type="line"/>
      <point x="37" y="382"/>
      <point x="93" y="456"/>
      <point x="188" y="456" type="curve" smooth="yes"/>
      <point x="271" y="456"/>
      <point x="336" y="422"/>
    </contour>
  </outline>
</glyph>
<glyph name="five.numr" format="2">
  <advance width="369"/>
  <outline>
    <contour>
      <point x="188" y="273" type="curve" smooth="yes"/>
      <point x="273" y="273"/>
      <point x="334" y="330"/>
      <point x="334" y="413" type="curve" smooth="yes"/>
      <point x="334" y="489"/>
      <point x="278" y="544"/>
      <point x="204" y="544" type="curve" smooth="yes"/>
      <point x="146" y="544"/>
      <point x="97" y="507"/>
      <point x="78" y="475" type="curve"/>
      <point x="119" y="471" type="line"/>
      <point x="146" y="698" type="line"/>
      <point x="84" y="698" type="line"/>
      <point x="90" y="643" type="line"/>
      <point x="313" y="643" type="line"/>
      <point x="313" y="700" type="line"/>
      <point x="84" y="700" type="line"/>
      <point x="62" y="475" type="line"/>
      <point x="118" y="462" type="line"/>
      <point x="132" y="480"/>
      <point x="160" y="494"/>
      <point x="188" y="494" type="curve" smooth="yes"/>
      <point x="237" y="494"/>
      <point x="271" y="459"/>
      <point x="271" y="410" type="curve" smooth="yes"/>
      <point x="271" y="361"/>
      <point x="236" y="327"/>
      <point x="186" y="327" type="curve" smooth="yes"/>
      <point x="154" y="327"/>
      <point x="124" y="341"/>
      <point x="100" y="372" type="curve"/>
      <point x="46" y="349" type="line"/>
      <point x="73" y="298"/>
      <point x="135" y="273"/>
    </contour>
  </outline>
</glyph>
<glyph name="four.numr" format="2">
  <advance width="391"/>
  <outline>
    <contour>
      <point x="81" y="397" type="line"/>
      <point x="263" y="665" type="line"/>
      <point x="224" y="700" type="line"/>
      <point x="35" y="424" type="line"/>
    </contour>
    <contour>
      <point x="35" y="374" type="line"/>
      <point x="370" y="374" type="line"/>
      <point x="370" y="429" type="line"/>
      <point x="73" y="429" type="line"/>
      <point x="35" y="424" type="line"/>
    </contour>
    <contour>
      <point x="229" y="280" type="line"/>
      <point x="289" y="280" type="line"/>
      <point x="289" y="700" type="line"/>
      <point x="224" y="700" type="line"/>
      <point x="229" y="663" type="line"/>
    </contour>
  </outline>
</glyph>
<glyph name="seven.numr" format="2">
  <advance width="338"/>
  <outline>
    <contour>
      <point x="60" y="280" type="line"/>
      <point x="129" y="280" type="line"/>
      <point x="317" y="651" type="line"/>
      <point x="254" y="655" type="line"/>
    </contour>
    <contour>
      <point x="31" y="643" type="line"/>
      <point x="261" y="643" type="line"/>
      <point x="317" y="651" type="line"/>
      <point x="317" y="700" type="line"/>
      <point x="31" y="700" type="line"/>
    </contour>
  </outline>
</glyph>
<glyph name="two.numr" format="2">
  <advance width="359"/>
  <outline>
    <contour>
      <point x="100" y="323" type="line"/>
      <point x="102" y="350"/>
      <point x="127" y="382"/>
      <point x="158" y="405" type="curve" smooth="yes"/>
      <point x="233" y="461" type="line"/>
      <point x="281" y="498"/>
      <point x="307" y="535"/>
      <point x="307" y="583" type="curve" smooth="yes"/>
      <point x="307" y="655"/>
      <point x="252" y="707"/>
      <point x="165" y="707" type="curve" smooth="yes"/>
      <point x="89" y="707"/>
      <point x="34" y="657"/>
      <point x="21" y="601" type="curve"/>
      <point x="85" y="589" type="line"/>
      <point x="94" y="620"/>
      <point x="122" y="650"/>
      <point x="167" y="650" type="curve" smooth="yes"/>
      <point x="214" y="650"/>
      <point x="243" y="620"/>
      <point x="243" y="582" type="curve" smooth="yes"/>
      <point x="243" y="554"/>
      <point x="219" y="523"/>
      <point x="191" y="503" type="curve"/>
      <point x="113" y="445" type="line"/>
      <point x="66" y="410"/>
      <point x="38" y="367"/>
      <point x="38" y="329" type="curve"/>
    </contour>
    <contour>
      <point x="38" y="280" type="line"/>
      <point x="313" y="280" type="line"/>
      <point x="313" y="336" type="line"/>
      <point x="85" y="336" type="line"/>
      <point x="38" y="329" type="line"/>
    </contour>
  </outline>
</glyph>
<glyph name="zero.numr" format="2">
  <advance width="406"/>
  <outline>
    <contour>
      <point x="204" y="273" type="curve" smooth="yes"/>
      <point x="302" y="273"/>
      <point x="371" y="362"/>
      <point x="371" y="490" type="curve" smooth="yes"/>
      <point x="371" y="619"/>
      <point x="302" y="707"/>
      <point x="203" y="707" type="curve" smooth="yes"/>
      <point x="104" y="707"/>
      <point x="35" y="619"/>
      <point x="35" y="490" type="curve" smooth="yes"/>
      <point x="35" y="362"/>
      <point x="105" y="273"/>
    </contour>
    <contour>
      <point x="204" y="330" type="curve" smooth="yes"/>
      <point x="142" y="330"/>
      <point x="98" y="396"/>
      <point x="98" y="490" type="curve" smooth="yes"/>
      <point x="98" y="585"/>
      <point x="142" y="651"/>
      <point x="203" y="651" type="curve" smooth="yes"/>
      <point x="266" y="651"/>
      <point x="310" y="585"/>
      <point x="310" y="490" type="curve" smooth="yes"/>
      <point x="310" y="396"/>
      <point x="266" y="330"/>
    </contour>
  </outline>
</glyph>
